<svg width="100" height="22" viewBox="0 0 100 22" fill="none" xmlns="http://www.w3.org/2000/svg">
<path d="M37.0141 12.7968C37.196 13.4773 37.5609 14.0951 38.0692 14.5834C38.5934 15.0652 39.2878 15.3196 39.9997 15.2905C40.3224 15.291 40.6434 15.2432 40.952 15.1487C41.2454 15.0628 41.5203 14.9235 41.7629 14.7377C41.9964 14.5553 42.1855 14.3222 42.3159 14.0563C42.4565 13.7684 42.5271 13.4515 42.5219 13.1312C42.5338 12.8896 42.4928 12.6482 42.4018 12.424C42.3107 12.1998 42.1717 11.9981 41.9946 11.8331C41.5492 11.4632 41.0384 11.1798 40.4887 10.9976L39.0216 10.4836C37.0479 9.79846 36.0612 8.64178 36.0617 7.0135C36.0548 6.54679 36.156 6.08479 36.3573 5.66356C36.5505 5.2665 36.822 4.91252 37.1556 4.62286C37.5059 4.32268 37.9128 4.09542 38.3523 3.95441C38.8341 3.79719 39.3382 3.71906 39.8451 3.72305C40.7378 3.71807 41.6079 4.00399 42.3233 4.53744C43.0386 5.07089 43.5603 5.82277 43.8092 6.67905L42.4448 7.21876C42.2724 6.62838 41.9433 6.09554 41.4925 5.67661C41.0364 5.26135 40.4362 5.03997 39.8194 5.05948C39.2503 5.04409 38.6926 5.22075 38.2364 5.56093C38.0256 5.7158 37.8557 5.91959 37.7413 6.15471C37.627 6.38982 37.5717 6.64919 37.5802 6.91043C37.5802 7.92187 38.2322 8.65018 39.5363 9.09536L40.952 9.58375C41.9815 9.94386 42.7579 10.398 43.2814 10.9463C43.5432 11.2245 43.7473 11.5517 43.882 11.909C44.0168 12.2662 44.0795 12.6466 44.0666 13.0282C44.0747 13.557 43.9601 14.0805 43.7317 14.5577C43.518 14.9996 43.2107 15.3899 42.8311 15.7015C42.4413 16.0167 41.996 16.2565 41.5182 16.4086C41.0196 16.5713 40.4984 16.6536 39.974 16.6526C38.8066 16.6355 37.8499 16.3185 37.1038 15.7015C36.3602 15.0892 35.84 14.2488 35.624 13.3108L37.0141 12.7968Z" fill="#F37C48"/>
<path d="M47.4651 4.00488V16.3691H45.9209V4.00488H47.4651Z" fill="#F37C48"/>
<path d="M50.1826 4.00494H51.7268V6.13856C52.1289 5.42769 52.71 4.83403 53.4125 4.41636C54.2255 3.93589 55.1581 3.69524 56.1024 3.72226C56.8287 3.71069 57.5501 3.84176 58.2258 4.10803C58.8315 4.351 59.3764 4.72396 59.8218 5.2005C60.2754 5.69878 60.6214 6.28502 60.8382 6.92269C61.0861 7.64624 61.2081 8.40686 61.1988 9.17155V16.3691H59.6546V9.3516C59.6546 8.06647 59.3157 7.04258 58.6378 6.2799C57.9599 5.51738 57.0118 5.13612 55.7937 5.13612C55.2385 5.12784 54.6882 5.24087 54.1814 5.46729C53.6745 5.69371 53.2234 6.02806 52.8595 6.4469C52.4922 6.86972 52.2083 7.35816 52.0229 7.88642C51.822 8.45597 51.7218 9.05609 51.7268 9.65994V16.3691H50.1826V4.00494Z" fill="#F37C48"/>
<path d="M74.7107 13.4129C74.2152 14.4078 73.446 15.2409 72.4932 15.8146C71.5404 16.3882 70.4435 16.6786 69.3313 16.6516C68.4714 16.6612 67.6182 16.4996 66.8216 16.1763C66.0759 15.8717 65.4011 15.4166 64.8398 14.8394C64.2715 14.249 63.8292 13.5495 63.5399 12.7832C63.2245 11.9498 63.0674 11.0651 63.0766 10.1742C63.068 9.2959 63.2252 8.4238 63.5399 7.60355C63.8301 6.8445 64.2674 6.15005 64.8267 5.55996C65.3806 4.98259 66.0461 4.5235 66.7829 4.21046C67.5556 3.88138 68.388 3.71512 69.228 3.72207C70.056 3.71247 70.8764 3.87896 71.6349 4.21046C72.3482 4.52502 72.988 4.98463 73.5135 5.55996C74.0489 6.15371 74.4679 6.84246 74.749 7.5905C75.053 8.39094 75.2058 9.24074 75.1997 10.0968C75.2004 10.17 75.1961 10.2431 75.1866 10.3156C75.1785 10.3709 75.1743 10.4267 75.174 10.4826V10.6365H64.6464V10.6626C64.656 11.297 64.7962 11.9226 65.0584 12.5005C65.4349 13.3217 66.0408 14.0168 66.8033 14.5024C67.5659 14.988 68.4526 15.2433 69.357 15.2378C70.3517 15.2378 71.171 15.0151 71.8148 14.5698C72.4806 14.0994 73.0307 13.4841 73.4234 12.7702L74.7107 13.4129ZM69.2024 5.08462C68.6096 5.07957 68.0224 5.19776 67.4779 5.43167C66.9566 5.6557 66.4811 5.97369 66.0752 6.36974C65.6743 6.76037 65.3435 7.21683 65.0972 7.71923C64.849 8.2208 64.7046 8.76719 64.6726 9.32575H73.6294C73.5824 8.74353 73.4345 8.1739 73.1922 7.64226C72.9649 7.13842 72.6463 6.68089 72.2524 6.29277C71.8596 5.91163 71.3964 5.61032 70.8885 5.40556C70.3529 5.18939 69.78 5.08035 69.2024 5.08462V5.08462Z" fill="#F37C48"/>
<path d="M83.256 5.36733H83.1014C83.0497 5.36746 82.9981 5.36309 82.9472 5.35428C82.879 5.34472 82.8101 5.3405 82.7413 5.34168C82.1665 5.33578 81.5982 5.46337 81.0812 5.71438C80.5788 5.95952 80.1354 6.31023 79.7814 6.74248C79.4057 7.2075 79.1218 7.73952 78.9448 8.31029C78.7419 8.95473 78.642 9.62706 78.6487 10.3026V16.369H77.1045V4.00479H78.623V6.57549C78.7665 6.18736 78.9753 5.82657 79.2405 5.50868C79.5223 5.16785 79.8517 4.86921 80.2185 4.62192C80.5961 4.36488 81.0077 4.16158 81.4414 4.01784C81.877 3.87254 82.3334 3.79866 82.7927 3.79908C82.8572 3.79889 82.9216 3.80325 82.9855 3.81213C83.0324 3.8195 83.0797 3.82371 83.1271 3.82474H83.256L83.256 5.36733Z" fill="#F37C48"/>
<path d="M94.2211 13.8242C93.7468 14.6218 93.0551 15.2682 92.2266 15.6877C91.3525 16.1565 90.3748 16.3994 89.3826 16.3944C88.5384 16.4008 87.7018 16.2346 86.9243 15.9061C86.1797 15.5936 85.5057 15.1347 84.9425 14.5566C84.3791 13.9743 83.9334 13.2892 83.6295 12.5386C83.3082 11.7469 83.1464 10.8996 83.1535 10.0454C83.1465 9.19109 83.3082 8.34383 83.6295 7.55208C84.0937 6.41144 84.8904 5.43641 85.9162 4.75345C86.9421 4.07049 88.1497 3.71111 89.3826 3.72192C90.3832 3.71497 91.3697 3.9579 92.2523 4.42862C93.0823 4.84869 93.7679 5.50668 94.2211 6.31827V4.0046H95.74V15.726C95.7501 16.5928 95.6062 17.4544 95.315 18.271C95.0499 19.0124 94.6337 19.6908 94.0926 20.2633C93.5437 20.8308 92.8756 21.2697 92.1365 21.5484C91.3054 21.8584 90.4238 22.0109 89.5367 21.9981C88.3116 22.026 87.1005 21.7336 86.0233 21.1501C85.0344 20.5998 84.2323 19.7674 83.7197 18.7594L84.9551 17.9109C85.3679 18.7327 86.0121 19.4163 86.8085 19.8776C87.6412 20.3425 88.5829 20.5776 89.5367 20.5586C90.2094 20.5703 90.878 20.4525 91.5059 20.2116C92.0593 19.9945 92.5596 19.6614 92.9731 19.2348C93.3851 18.7998 93.7009 18.2831 93.8997 17.7183C94.1207 17.0864 94.2295 16.4209 94.2211 15.7517V13.8242ZM89.4853 14.9806C90.1403 14.987 90.7893 14.8557 91.3901 14.5953C92.5539 14.0889 93.4731 13.1478 93.9511 11.9733C94.202 11.3616 94.3289 10.7063 94.3243 10.0454C94.3329 9.08708 94.0593 8.14742 93.5377 7.34308C93.016 6.53874 92.2692 5.90518 91.3901 5.52109C90.7893 5.26064 90.1403 5.12936 89.4853 5.13578C88.8388 5.13099 88.1986 5.26228 87.6063 5.52109C87.0407 5.76576 86.5291 6.11959 86.1008 6.56225C85.2095 7.5027 84.7161 8.75046 84.7234 10.0454C84.717 10.7148 84.8439 11.3789 85.0966 11.9989C85.3304 12.5758 85.6711 13.1035 86.1009 13.5541C86.5291 13.9968 87.0407 14.3506 87.6063 14.5953C88.1986 14.8541 88.8388 14.9854 89.4853 14.9806Z" fill="#F37C48"/>
<path d="M100.001 4.00488V16.3691H98.457V4.00488H100.001Z" fill="#F37C48"/>
<path d="M33.6845 3.97095H30.0137V16.3747H33.6845V3.97095Z" fill="#295757"/>
<path d="M27.6569 3.87028C26.2567 3.8011 25.733 3.5264 25.733 3.5264C24.1656 3.01578 24.3724 0 24.3724 0H20.7313C20.7313 3.27134 22.2225 3.94699 22.2225 3.94699L19.1904 3.95059L19.1946 7.00167H20.7912V12.5174C20.7912 14.861 22.0792 16.4355 23.9961 16.4355H27.6531V13.0375H26.0984C24.9107 13.0375 24.3812 12.1766 24.3812 11.1358V7.00168H27.6531C27.6531 7.00168 27.6565 4.05076 27.6569 3.87028Z" fill="#295757"/>
<path d="M3.67088 3.97095H0V16.3747H3.67088V3.97095Z" fill="#295757"/>
<path d="M13.2851 3.64406C12.5292 3.6246 11.7808 3.79746 11.1103 4.14637C10.4997 4.47996 9.98467 4.96399 9.61424 5.55243V3.97079H5.94336V16.3745H9.61424V9.79591C9.61424 8.92552 9.82789 8.24332 10.2552 7.74929C10.4642 7.50641 10.7253 7.3137 11.0192 7.18549C11.313 7.05727 11.632 6.99684 11.9524 7.0087C12.6731 7.0087 13.2262 7.23052 13.6118 7.67417C13.9973 8.11781 14.19 8.74978 14.19 9.5701V16.3745H17.8609V8.71615C17.8609 7.14295 17.4544 5.90419 16.6413 4.99988C15.8281 4.09615 14.7093 3.64421 13.2851 3.64406Z" fill="#295757"/>
</svg>
