<svg width="16" height="16" viewBox="0 0 16 16" fill="none" xmlns="http://www.w3.org/2000/svg">
<path d="M12.0121 3.25L7.32003 7.9375C7.06978 8.1875 6.88209 8.5625 6.81953 8.9375L6.63185 10C6.56928 10.4375 6.94466 10.8125 7.38259 10.75L8.44613 10.5625C8.8215 10.5 9.1343 10.3125 9.44711 10.0625L14.1392 5.375L12.0121 3.25Z" fill="currentColor"/>
<path d="M15.5773 1.75C15.0142 1.1875 14.0758 1.1875 13.5128 1.75L12.4492 2.8125L14.5137 4.875L15.5773 3.8125C16.1403 3.25 16.1403 2.3125 15.5773 1.75Z" fill="#C2D9D7"/>
<path d="M10.2601 10.875C9.82214 11.3125 9.25909 11.625 8.63348 11.75L7.56993 11.9375H7.50737H9.82214C10.1975 11.9375 10.4478 12.1875 10.4478 12.5625C10.4478 12.9375 10.1975 13.1875 9.82214 13.1875H5.88077C5.5054 13.1875 5.25516 12.9375 5.25516 12.5625C5.25516 12.1875 5.5054 11.9375 5.88077 11.9375H6.94431C6.50638 11.875 6.06846 11.625 5.75565 11.3125C5.38028 10.875 5.25515 10.3125 5.38028 9.75L5.56796 8.6875C5.56796 8.625 5.63053 8.5625 5.63053 8.5C5.44284 8.375 5.31772 8.1875 5.31772 7.9375C5.31772 7.5625 5.56797 7.3125 5.94334 7.3125H6.19358C6.25614 7.25 6.31871 7.125 6.44383 7.0625L9.50934 4H5.94334C5.56797 4 5.31772 3.75 5.31772 3.375C5.31772 3 5.56797 2.75 5.94334 2.75H9.88471C10.135 2.75 10.3226 2.875 10.4478 3.125L10.7606 2.8125L11.6364 1.9375L11.8867 1.6875C11.8241 0.75 11.0108 0 10.0098 0H1.87684C0.813299 0 0 0.8125 0 1.875V14.125C0 15.1875 0.813299 16 1.87684 16H10.0098C11.0734 16 11.8867 15.1875 11.8867 14.125V9.3125L10.2601 10.875ZM4.56699 13.3125C4.56699 13.8125 4.12906 14.25 3.62856 14.25H2.12708C1.62659 14.25 1.18866 13.8125 1.18866 13.3125V11.8125C1.18866 11.3125 1.62659 10.875 2.12708 10.875H3.62856C4.12906 10.875 4.56699 11.3125 4.56699 11.8125V13.3125ZM4.56699 8.6875C4.56699 9.1875 4.12906 9.625 3.62856 9.625H2.12708C1.62659 9.625 1.18866 9.1875 1.18866 8.6875V7.1875C1.18866 6.6875 1.62659 6.25 2.12708 6.25H3.62856C4.12906 6.25 4.56699 6.6875 4.56699 7.1875V8.6875ZM4.56699 4.125C4.56699 4.625 4.12906 5.0625 3.62856 5.0625H2.12708C1.62659 5.0625 1.18866 4.625 1.18866 4.125V2.5625C1.18866 2.0625 1.62659 1.625 2.12708 1.625H3.62856C4.12906 1.625 4.56699 2.0625 4.56699 2.5625V4.125Z" fill="currentColor"/>
</svg>
