<svg width="16" height="16" viewBox="0 0 16 16" fill="none" xmlns="http://www.w3.org/2000/svg">
<path d="M8 7.1249C9.96751 7.1249 11.5625 5.52994 11.5625 3.56245C11.5625 1.59496 9.96751 0 8 0C6.03248 0 4.4375 1.59496 4.4375 3.56245C4.4375 5.52994 6.03248 7.1249 8 7.1249Z" fill="currentColor"/>
<path d="M14.125 5.875H12.25C11.4375 7.37498 9.875 8.37496 8 8.37496C6.1875 8.37496 4.625 7.37498 3.75 5.875H1.875C0.8125 5.875 0 6.68749 0 7.74997V14.1249C0 15.1874 0.8125 15.9999 1.875 15.9999H14.125C15.1875 15.9999 16 15.1874 16 14.1249V7.74997C16 6.68749 15.125 5.875 14.125 5.875ZM4.875 10.7499H2.375C2 10.7499 1.75 10.4999 1.75 10.1249C1.75 9.74995 2 9.49995 2.375 9.49995H4.875C5.25 9.49995 5.5 9.74995 5.5 10.1249C5.5 10.4999 5.25 10.7499 4.875 10.7499Z" fill="currentColor"/>
</svg>
