<svg width="16" height="16" viewBox="0 0 16 16" fill="none" xmlns="http://www.w3.org/2000/svg">
<path d="M11.75 5.81218V11.0772C11.75 11.4874 12 11.7609 12.375 11.7609H15.375C15.75 11.7609 16 11.4874 16 11.0772V7.17971C16 6.01731 15.1875 5.12842 14.125 5.12842H12.375C12.0625 5.12842 11.75 5.4703 11.75 5.81218Z" fill="#A0BEBD"/>
<path d="M5.18751 15.9999C6.1195 15.9999 6.87503 15.1734 6.87503 14.1538C6.87503 13.1342 6.1195 12.3076 5.18751 12.3076C4.25553 12.3076 3.5 13.1342 3.5 14.1538C3.5 15.1734 4.25553 15.9999 5.18751 15.9999Z" fill="#A0BEBD"/>
<path d="M13.375 15.9999C14.307 15.9999 15.0625 15.1734 15.0625 14.1538C15.0625 13.1342 14.307 12.3076 13.375 12.3076C12.443 12.3076 11.6875 13.1342 11.6875 14.1538C11.6875 15.1734 12.443 15.9999 13.375 15.9999Z" fill="currentColor"/>
<path d="M5.93755 2.32495H0.625005C0.250002 2.32495 0 2.59846 0 3.00872C0 3.41897 0.250002 3.69248 0.625005 3.69248H5.93755C6.31255 3.69248 6.56255 3.41897 6.56255 3.00872C6.56255 2.59846 6.31255 2.32495 5.93755 2.32495Z" fill="currentColor"/>
<path d="M9.25006 0H5.75003H3.87502C3.00001 0 2.25 0.683763 2.0625 1.64103H5.93753C6.31254 1.64103 6.56254 1.91454 6.56254 2.3248C6.56254 2.73506 6.31254 3.00856 5.93753 3.00856H2V3.7607V4.44447V4.71797H6.56254C6.93754 4.71797 7.18754 4.99148 7.18754 5.40174C7.18754 5.81199 6.93754 6.0855 6.56254 6.0855H2V6.56414V7.45303V7.79491H7.37504C7.75005 7.79491 8.00005 8.06842 8.00005 8.47867C8.00005 8.88893 7.75005 9.16244 7.37504 9.16244H2V9.64107C2 10.8035 2.81251 11.6924 3.87502 11.6924H10.5001C10.8751 11.6924 11.1251 11.4189 11.1251 11.0086V2.05129C11.1251 0.888893 10.3126 0 9.25006 0Z" fill="currentColor"/>
<path d="M6.56255 5.40186H1.375C1 5.40186 0.75 5.67536 0.75 6.08562C0.75 6.49588 1 6.76938 1.375 6.76938H6.56255C6.93755 6.76938 7.18755 6.49588 7.18755 6.08562C7.18755 5.74374 6.93755 5.40186 6.56255 5.40186Z" fill="currentColor"/>
<path d="M7.37505 8.54712H2C1.625 8.54712 1.375 8.82062 1.375 9.23088C1.375 9.64114 1.625 9.91465 2 9.91465H7.37505C7.75005 9.91465 8.00005 9.64114 8.00005 9.23088C8.00005 8.82062 7.75005 8.54712 7.37505 8.54712Z" fill="currentColor"/>
</svg>
