<svg width="16" height="16" viewBox="0 0 16 16" fill="none" xmlns="http://www.w3.org/2000/svg">
<path d="M15 0H14C13.5 0 13.0625 0.435798 13.0625 0.933852V6.97276L11.0625 4.29572C10.5 3.54864 9.375 3.92218 9.375 4.85603V6.22568L7.9375 4.29572C7.375 3.54864 6.25 3.92218 6.25 4.85603V6.22568L4.8125 4.29572C4.25 3.54864 3.125 3.92218 3.125 4.85603V6.22568L1.6875 4.29572C1.125 3.54864 0 3.92218 0 4.85603V6.16342V7.03502V8.03113V9.96109V14.1323C0 15.1907 0.8125 16 1.875 16H14.125C15.1875 16 16 15.1907 16 14.1323V9.33852V8.03113V0.933852C15.9375 0.435798 15.5 0 15 0ZM5 13.323C5 13.821 4.5625 14.2568 4.0625 14.2568H2.5625C2.0625 14.2568 1.625 13.821 1.625 13.323V11.8288C1.625 11.3307 2.0625 10.8949 2.5625 10.8949H4.0625C4.5625 10.8949 5 11.3307 5 11.8288V13.323ZM9.625 13.323C9.625 13.821 9.1875 14.2568 8.6875 14.2568H7.1875C6.6875 14.2568 6.25 13.821 6.25 13.323V11.8288C6.25 11.3307 6.6875 10.8949 7.1875 10.8949H8.6875C9.1875 10.8949 9.625 11.3307 9.625 11.8288V13.323ZM14.1875 13.323C14.1875 13.821 13.75 14.2568 13.25 14.2568H11.75C11.25 14.2568 10.8125 13.821 10.8125 13.323V11.8288C10.8125 11.3307 11.25 10.8949 11.75 10.8949H13.25C13.75 10.8949 14.1875 11.3307 14.1875 11.8288V13.323Z" fill="currentColor"/>
</svg>
