<svg width="16" height="16" viewBox="0 0 16 16" fill="none" xmlns="http://www.w3.org/2000/svg">
<path d="M6.3125 4.375C6.4375 4.375 6.5625 4.4375 6.6875 4.5L8 5.375V0H5.9375H4.75V5.3125L6 4.4375C6.0625 4.375 6.1875 4.375 6.3125 4.375Z" fill="currentColor"/>
<path d="M13.5 0H9.25V6.5C9.25 6.75 9.125 6.9375 8.9375 7.0625C8.875 7.125 8.75 7.125 8.625 7.125C8.5 7.125 8.375 7.0625 8.25 7L6.3125 5.75L4.4375 7C4.25 7.125 4 7.125 3.8125 7.0625C3.625 6.9375 3.5 6.75 3.5 6.5V0H2.5C1.125 0 0 1.125 0 2.5V13.5C0 14.875 1.125 16 2.5 16H13.5C14.875 16 16 14.875 16 13.5V2.5C16 1.125 14.875 0 13.5 0Z" fill="currentColor"/>
</svg>
