<svg width="16" height="16" viewBox="0 0 16 16" fill="none" xmlns="http://www.w3.org/2000/svg">
<path d="M6.2117 16C7.14733 16 7.90581 15.2445 7.90581 14.3125C7.90581 13.3805 7.14733 12.625 6.2117 12.625C5.27606 12.625 4.51758 13.3805 4.51758 14.3125C4.51758 15.2445 5.27606 16 6.2117 16Z" fill="#A0BEBD"/>
<path d="M12.4236 16C13.3592 16 14.1177 15.2445 14.1177 14.3125C14.1177 13.3805 13.3592 12.625 12.4236 12.625C11.488 12.625 10.7295 13.3805 10.7295 14.3125C10.7295 15.2445 11.488 16 12.4236 16Z" fill="#A0BEBD"/>
<path d="M3.26274 0H0.627451C0.25098 0 0 0.249999 0 0.624997C0 0.999996 0.25098 1.24999 0.627451 1.24999H3.26274C3.63921 1.24999 3.89019 0.999996 3.89019 0.624997C3.89019 0.249999 3.57647 0 3.26274 0Z" fill="currentColor"/>
<path d="M15.435 12.0625H4.0154H3.88991V0.749997C3.88991 0.312499 3.57619 0 3.13697 0H2.69776C2.63501 0 2.57227 0.0624998 2.57227 0.125V12.6249C2.57227 13.0624 2.88599 13.3749 3.32521 13.3749H15.3723C15.7487 13.3749 15.9997 13.1249 15.9997 12.7499C15.9997 12.375 15.8115 12.0625 15.435 12.0625Z" fill="currentColor"/>
<path d="M11.545 6.0625H8.03125V7.3125H11.545V6.0625Z" fill="currentColor"/>
<path d="M13.4276 6.0625H12.8002V7.93749C12.8002 8.31249 12.4864 8.56249 12.1727 8.56249H7.46683C7.09036 8.56249 6.83938 8.24999 6.83938 7.93749V6.0625H6.21193C5.52174 6.0625 4.95703 6.625 4.95703 7.31249V9.87498C4.95703 10.5625 5.52174 11.125 6.21193 11.125H13.4904C14.1806 11.125 14.7453 10.5625 14.7453 9.87498V7.31249C14.6825 6.625 14.1178 6.0625 13.4276 6.0625Z" fill="currentColor"/>
<path d="M11.545 0H8.03125V1.24999H11.545V0Z" fill="currentColor"/>
<path d="M13.4276 0H12.8002V1.87499C12.8002 2.24999 12.4864 2.49999 12.1727 2.49999H7.46683C7.09036 2.49999 6.83938 2.18749 6.83938 1.87499V0H6.21193C5.52174 0 4.95703 0.562498 4.95703 1.24999V3.81248C4.95703 4.49998 5.52174 5.06248 6.21193 5.06248H13.4904C14.1806 5.06248 14.7453 4.49998 14.7453 3.81248V1.24999C14.6825 0.562498 14.1178 0 13.4276 0Z" fill="currentColor"/>
</svg>
