<svg width="16" height="16" viewBox="0 0 16 16" fill="none" xmlns="http://www.w3.org/2000/svg">
<path d="M6.68749 7.09737C8.65499 7.09737 10.25 5.50857 10.25 3.54869C10.25 1.5888 8.65499 0 6.68749 0C4.71998 0 3.125 1.5888 3.125 3.54869C3.125 5.50857 4.71998 7.09737 6.68749 7.09737Z" fill="#A0BEBD"/>
<path d="M12.375 11.5801C12 11.5801 11.625 11.8914 11.625 12.3272C11.625 12.7007 11.9375 13.0743 12.375 13.0743C12.75 13.0743 13.125 12.763 13.125 12.3272C13.0625 11.8914 12.75 11.5801 12.375 11.5801Z" fill="currentColor"/>
<path d="M12.375 11.5796C12 11.5796 11.625 11.8909 11.625 12.3267C11.625 12.7002 11.9375 13.0738 12.375 13.0738C12.75 13.0738 13.125 12.7625 13.125 12.3267C13.0625 11.8909 12.75 11.5796 12.375 11.5796Z" fill="currentColor"/>
<path d="M15.6875 11.3929H15.1875C15.125 11.2684 15.0625 11.0816 15 10.9571L15.3125 10.6458C15.4375 10.5213 15.4375 10.2723 15.3125 10.1477L14.5 9.3384C14.375 9.21388 14.125 9.21388 14 9.3384L13.6875 9.64969C13.5625 9.58743 13.4375 9.52517 13.25 9.46291V8.96485C13.25 8.77808 13.125 8.65356 12.9375 8.65356H11.75C11.5625 8.65356 11.4375 8.77808 11.4375 8.96485V9.46291C11.3125 9.52517 11.125 9.58743 11 9.64969L10.6875 9.3384C10.5625 9.21388 10.3125 9.21388 10.1875 9.3384L9.375 10.1477C9.25 10.2723 9.25 10.5213 9.375 10.6458L9.6875 10.9571C9.625 11.0816 9.5625 11.2061 9.5 11.3929H9C8.8125 11.3929 8.6875 11.5174 8.6875 11.7042V12.8871C8.6875 13.0739 8.8125 13.1984 9 13.1984H9.5C9.5625 13.3229 9.625 13.5097 9.6875 13.6342L9.375 14.0077C9.25 14.1322 9.25 14.3813 9.375 14.5058L10.1875 15.3151C10.3125 15.4396 10.5625 15.4396 10.6875 15.3151L11 15.0038C11.125 15.0661 11.25 15.1284 11.4375 15.1906V15.6887C11.4375 15.8755 11.5625 16 11.75 16H12.9375C13.125 16 13.25 15.8755 13.25 15.6887V15.1906C13.375 15.1284 13.5625 15.0661 13.6875 15.0038L14 15.3151C14.125 15.4396 14.375 15.4396 14.5 15.3151L15.3125 14.5058C15.4375 14.3813 15.4375 14.1322 15.3125 14.0077L15 13.6342C15.0625 13.5097 15.125 13.3851 15.1875 13.1984H15.6875C15.875 13.1984 16 13.0739 16 12.8871V11.7042C16 11.5797 15.875 11.3929 15.6875 11.3929ZM12.375 14.2568C11.3125 14.2568 10.375 13.3851 10.375 12.2645C10.375 11.2061 11.25 10.2723 12.375 10.2723C13.4375 10.2723 14.375 11.1439 14.375 12.2645C14.3125 13.3851 13.4375 14.2568 12.375 14.2568Z" fill="currentColor"/>
<path d="M11.4375 7.22168H9.81246C8.99997 7.90651 7.87497 8.34232 6.68748 8.34232C5.49998 8.34232 4.43748 7.90651 3.56249 7.22168H1.87499C0.812497 7.22168 0 8.03103 0 9.08941V14.1323C0 15.1907 0.812497 16 1.87499 16H9.06247L8.43747 15.3774C8.12497 15.0661 7.99997 14.6926 7.99997 14.2568C7.99997 14.1945 7.99997 14.1945 7.99997 14.1323C7.68747 13.821 7.43747 13.3852 7.43747 12.9494V11.7665C7.43747 11.2684 7.62497 10.8326 7.99997 10.5836C7.99997 10.5213 7.99997 10.5213 7.99997 10.4591C7.99997 10.0233 8.18747 9.64973 8.43747 9.33844L9.24997 8.52909C9.56246 8.2178 9.93746 8.09329 10.375 8.09329C10.4375 8.09329 10.4375 8.09329 10.5 8.09329C10.8125 7.782 11.25 7.53297 11.6875 7.53297H12.25C12.0625 7.28394 11.75 7.22168 11.4375 7.22168Z" fill="#A0BEBD"/>
</svg>
