<svg width="20" height="20" viewBox="0 0 20 20" fill="none" xmlns="http://www.w3.org/2000/svg">
<path fill-rule="evenodd" clip-rule="evenodd" d="M5.77831 4.1665C5.79654 4.1665 5.81482 4.1665 5.83317 4.1665L14.2214 4.1665C14.9601 4.16646 15.5966 4.16642 16.1063 4.23495C16.6526 4.3084 17.1762 4.47402 17.6009 4.89874C18.0257 5.32345 18.1913 5.84708 18.2647 6.39334C18.3332 6.90306 18.3332 7.53958 18.3332 8.27833V14.2213C18.3332 14.9601 18.3332 15.5966 18.2647 16.1063C18.1913 16.6526 18.0257 17.1762 17.6009 17.6009C17.1762 18.0256 16.6526 18.1913 16.1063 18.2647C15.5966 18.3332 14.9601 18.3332 14.2213 18.3332H5.77833C5.03959 18.3332 4.40307 18.3332 3.89335 18.2647C3.34708 18.1913 2.82346 18.0256 2.39874 17.6009C1.97402 17.1762 1.8084 16.6526 1.73496 16.1063C1.66643 15.5966 1.66646 14.9601 1.66651 14.2214L1.66651 8.33317C1.66651 8.31482 1.66651 8.29653 1.66651 8.27831C1.66646 7.53957 1.66643 6.90306 1.73496 6.39334C1.8084 5.84708 1.97402 5.32345 2.39874 4.89874C2.82346 4.47402 3.34708 4.3084 3.89335 4.23495C4.40306 4.16642 5.03958 4.16646 5.77831 4.1665ZM4.11543 5.88676C3.75398 5.93535 3.64069 6.01381 3.57725 6.07725C3.51381 6.14068 3.43536 6.25397 3.38676 6.61542C3.33494 7.00084 3.33317 7.52394 3.33317 8.33317V14.1665C3.33317 14.9757 3.33494 15.4988 3.38676 15.8842C3.43536 16.2457 3.51381 16.359 3.57725 16.4224C3.64069 16.4859 3.75398 16.5643 4.11543 16.6129C4.50085 16.6647 5.02394 16.6665 5.83317 16.6665H14.1665C14.9757 16.6665 15.4988 16.6647 15.8842 16.6129C16.2457 16.5643 16.359 16.4859 16.4224 16.4224C16.4859 16.359 16.5643 16.2457 16.6129 15.8842C16.6647 15.4988 16.6665 14.9757 16.6665 14.1665V8.33317C16.6665 7.52394 16.6647 7.00084 16.6129 6.61542C16.5643 6.25397 16.4859 6.14068 16.4224 6.07725C16.359 6.01381 16.2457 5.93535 15.8842 5.88676C15.4988 5.83494 14.9757 5.83317 14.1665 5.83317H5.83317C5.02394 5.83317 4.50085 5.83494 4.11543 5.88676Z" fill="#363D4A"/>
<path fill-rule="evenodd" clip-rule="evenodd" d="M2.49984 9.1665C2.49984 8.70626 2.87294 8.33317 3.33317 8.33317H16.6665C17.1267 8.33317 17.4998 8.70626 17.4998 9.1665C17.4998 9.62674 17.1267 9.99983 16.6665 9.99983H3.33317C2.87294 9.99983 2.49984 9.62674 2.49984 9.1665Z" fill="#363D4A"/>
<path fill-rule="evenodd" clip-rule="evenodd" d="M6.6665 13.3332C6.6665 12.8729 7.0396 12.4998 7.49984 12.4998H12.4998C12.9601 12.4998 13.3332 12.8729 13.3332 13.3332C13.3332 13.7934 12.9601 14.1665 12.4998 14.1665H7.49984C7.0396 14.1665 6.6665 13.7934 6.6665 13.3332Z" fill="#363D4A"/>
<path fill-rule="evenodd" clip-rule="evenodd" d="M6.6665 1.6665C7.12674 1.6665 7.49984 2.0396 7.49984 2.49984L7.49984 5.83317C7.49984 6.29341 7.12674 6.6665 6.6665 6.6665C6.20627 6.6665 5.83317 6.29341 5.83317 5.83317V2.49984C5.83317 2.0396 6.20627 1.6665 6.6665 1.6665Z" fill="#363D4A"/>
<path fill-rule="evenodd" clip-rule="evenodd" d="M13.3332 1.6665C13.7934 1.6665 14.1665 2.0396 14.1665 2.49984V5.83317C14.1665 6.29341 13.7934 6.6665 13.3332 6.6665C12.8729 6.6665 12.4998 6.29341 12.4998 5.83317L12.4998 2.49984C12.4998 2.0396 12.8729 1.6665 13.3332 1.6665Z" fill="#363D4A"/>
</svg>
