<svg width="20" height="20" viewBox="0 0 20 20" fill="none" xmlns="http://www.w3.org/2000/svg">
<path fill-rule="evenodd" clip-rule="evenodd" d="M2.54567 2.54543C1.66699 3.42411 1.66699 4.83832 1.66699 7.66675V12.3334C1.66699 15.1618 1.66699 16.5761 2.54567 17.4547C3.42435 18.3334 4.83857 18.3334 7.667 18.3334H12.3337C15.1621 18.3334 16.5763 18.3334 17.455 17.4547C18.3337 16.5761 18.3337 15.1618 18.3337 12.3334V7.66675C18.3337 4.83832 18.3337 3.42411 17.455 2.54543C16.5763 1.66675 15.1621 1.66675 12.3337 1.66675H7.66699C4.83856 1.66675 3.42435 1.66675 2.54567 2.54543ZM14.999 8.05477C15.3054 7.59524 15.1812 6.97437 14.7217 6.66802C14.2622 6.36166 13.6413 6.48584 13.3349 6.94537L10.9575 10.5116L10.832 10.2608C10.1453 8.88725 8.23092 8.76807 7.37909 10.0458L5.00161 13.612C4.69526 14.0716 4.81943 14.6924 5.27896 14.9988C5.73849 15.3051 6.35936 15.181 6.66571 14.7214L9.04319 11.1552L9.1686 11.406C9.85537 12.7795 11.7697 12.8987 12.6216 11.621L14.999 8.05477Z" fill="currentColor"/>
</svg>
