<svg width="20" height="20" viewBox="0 0 20 20" fill="none" xmlns="http://www.w3.org/2000/svg">
<path fill-rule="evenodd" clip-rule="evenodd" d="M14.459 8.87454L15.8333 7.50019L15.8334 7.50016C16.0679 7.26568 16.1851 7.14843 16.2696 7.03623C16.8056 6.32402 16.8056 5.34302 16.2696 4.63081C16.1851 4.51861 16.0679 4.40136 15.8334 4.16688L15.8333 4.16685L15.8333 4.16683C15.5988 3.93234 15.4816 3.8151 15.3694 3.73065C14.6572 3.1946 13.6762 3.1946 12.964 3.73065C12.8518 3.8151 12.7345 3.93234 12.5 4.16683L12.5 4.16685L11.1064 5.56047C11.9033 6.94071 13.06 8.08849 14.459 8.87454ZM9.6518 7.01507L4.18973 12.4771C3.76467 12.9022 3.55214 13.1147 3.4124 13.3758C3.27267 13.6369 3.21372 13.9317 3.09583 14.5211L2.6471 16.7647C2.58058 17.0974 2.54732 17.2637 2.64193 17.3583C2.73654 17.4529 2.90284 17.4196 3.23545 17.3531H3.23545L5.4791 16.9044C6.06855 16.7865 6.36328 16.7275 6.62437 16.5878C6.88547 16.4481 7.098 16.2355 7.52306 15.8105L13.0006 10.3329C11.6528 9.48215 10.5106 8.34773 9.6518 7.01507Z" fill="currentColor"/>
</svg>
