<svg width="20" height="20" viewBox="0 0 20 20" fill="none" xmlns="http://www.w3.org/2000/svg">
<path fill-rule="evenodd" clip-rule="evenodd" d="M9.9998 11.6665C10.9203 11.6665 11.6665 10.9203 11.6665 9.99984C11.6665 9.07936 10.9203 8.33317 9.9998 8.33317C9.07933 8.33317 8.33314 9.07936 8.33314 9.99984C8.33314 10.9203 9.07933 11.6665 9.9998 11.6665ZM9.9998 13.3332C11.8408 13.3332 13.3331 11.8408 13.3331 9.99984C13.3331 8.15889 11.8408 6.6665 9.9998 6.6665C8.15886 6.6665 6.66647 8.15889 6.66647 9.99984C6.66647 11.8408 8.15886 13.3332 9.9998 13.3332Z" fill="currentColor"/>
<path fill-rule="evenodd" clip-rule="evenodd" d="M6.38242 7.19345C5.28315 7.98432 4.38654 8.95332 3.81968 9.64155C3.73654 9.74249 3.67445 9.818 3.62301 9.88442C3.58228 9.93699 3.55635 9.97361 3.53943 9.99984C3.55635 10.0261 3.58228 10.0627 3.62301 10.1153C3.67445 10.1817 3.73654 10.2572 3.81968 10.3581C4.38654 11.0464 5.28315 12.0154 6.38242 12.8062C7.48827 13.6018 8.7283 14.1665 9.9998 14.1665C11.2713 14.1665 12.5113 13.6018 13.6172 12.8062C14.7165 12.0154 15.6131 11.0464 16.1799 10.3581C16.2631 10.2572 16.3252 10.1817 16.3766 10.1153C16.4173 10.0627 16.4433 10.0261 16.4602 9.99984C16.4433 9.97361 16.4173 9.93699 16.3766 9.88442C16.3252 9.818 16.2631 9.74249 16.1799 9.64155C15.6131 8.95332 14.7165 7.98432 13.6172 7.19345C12.5113 6.39784 11.2713 5.83317 9.9998 5.83317C8.7283 5.83317 7.48827 6.39784 6.38242 7.19345ZM5.40906 5.84054C6.66159 4.9394 8.24153 4.1665 9.9998 4.1665C11.7581 4.1665 13.338 4.9394 14.5906 5.84054C15.8497 6.74642 16.8498 7.83338 17.4664 8.58194C17.4861 8.60581 17.5066 8.63036 17.5276 8.65562C17.7888 8.96847 18.1417 9.39114 18.1417 9.99984C18.1417 10.6085 17.7888 11.0312 17.5276 11.3441C17.5066 11.3693 17.4861 11.3939 17.4664 11.4177C16.8498 12.1663 15.8497 13.2533 14.5905 14.1591C13.338 15.0603 11.7581 15.8332 9.9998 15.8332C8.24153 15.8332 6.66159 15.0603 5.40906 14.1591C4.14994 13.2533 3.14976 12.1663 2.53321 11.4177C2.51355 11.3939 2.49306 11.3693 2.47197 11.3441C2.21078 11.0312 1.85791 10.6085 1.85791 9.99984C1.85791 9.39114 2.21078 8.96847 2.47197 8.65562C2.49306 8.63036 2.51355 8.60581 2.53321 8.58194C3.14976 7.83338 4.14994 6.74642 5.40906 5.84054Z" fill="currentColor"/>
</svg>
