<svg width="20" height="20" viewBox="0 0 20 20" fill="none" xmlns="http://www.w3.org/2000/svg">
<path fill-rule="evenodd" clip-rule="evenodd" d="M3.5944 7.33682C3.33301 7.89456 3.33301 8.52908 3.33301 9.79811V13.7614C3.33301 15.5238 3.33301 16.405 3.8909 16.9525C4.41969 17.4714 5.25395 17.4985 6.86874 17.4999V12.8268C6.86874 11.8832 7.64427 11.1421 8.57112 11.1421H11.4283C12.3551 11.1421 13.1306 11.8832 13.1306 12.8268V17.4999C14.7454 17.4985 15.5797 17.4714 16.1084 16.9525C16.6663 16.405 16.6663 15.5238 16.6663 13.7614V9.79811C16.6663 8.52908 16.6663 7.89456 16.4049 7.33682C16.1436 6.77908 15.6527 6.36614 14.6709 5.54027L13.7185 4.73914C11.9439 3.24638 11.0566 2.5 9.99967 2.5C8.94275 2.5 8.05545 3.24638 6.28087 4.73914L5.32849 5.54027C4.34669 6.36614 3.85579 6.77908 3.5944 7.33682ZM11.6306 17.5V12.8268C11.6306 12.738 11.5534 12.6421 11.4283 12.6421H8.57112C8.446 12.6421 8.36874 12.738 8.36874 12.8268V17.5H11.6306Z" fill="currentColor"/>
</svg>
