<svg width="20" height="20" viewBox="0 0 20 20" fill="none" xmlns="http://www.w3.org/2000/svg">
<path fill-rule="evenodd" clip-rule="evenodd" d="M14.4588 8.8743L15.8331 7.49994L15.8331 7.49992C16.0676 7.26543 16.1849 7.14818 16.2693 7.03599C16.8054 6.32377 16.8054 5.34278 16.2693 4.63057C16.1849 4.51837 16.0676 4.40112 15.8331 4.16663L15.8331 4.16661L15.8331 4.16658C15.5986 3.9321 15.4813 3.81485 15.3691 3.73041C14.6569 3.19436 13.6759 3.19436 12.9637 3.73041C12.8515 3.81485 12.7343 3.9321 12.4998 4.16658L12.4998 4.16661L11.1062 5.56022C11.9031 6.94047 13.0598 8.08825 14.4588 8.8743ZM9.65156 7.01482L4.18948 12.4769C3.76442 12.902 3.55189 13.1145 3.41216 13.3756C3.27242 13.6367 3.21348 13.9314 3.09559 14.5209L2.64686 16.7645C2.58034 17.0971 2.54708 17.2634 2.64168 17.358C2.73629 17.4526 2.9026 17.4194 3.2352 17.3529H3.23521L5.47886 16.9041C6.06831 16.7862 6.36303 16.7273 6.62413 16.5876C6.88523 16.4478 7.09776 16.2353 7.52282 15.8102L13.0004 10.3327C11.6525 9.48191 10.5104 8.34748 9.65156 7.01482Z" fill="#566376"/>
</svg>
