<svg width="20" height="20" viewBox="0 0 20 20" fill="none" xmlns="http://www.w3.org/2000/svg">
<path fill-rule="evenodd" clip-rule="evenodd" d="M14.667 9.16663C14.667 12.2042 12.2046 14.6666 9.16699 14.6666C6.12943 14.6666 3.66699 12.2042 3.66699 9.16663C3.66699 6.12906 6.12943 3.66663 9.16699 3.66663C12.2046 3.66663 14.667 6.12906 14.667 9.16663ZM13.7161 15.13C12.4543 16.094 10.8775 16.6666 9.16699 16.6666C5.02486 16.6666 1.66699 13.3088 1.66699 9.16663C1.66699 5.02449 5.02486 1.66663 9.16699 1.66663C13.3091 1.66663 16.667 5.02449 16.667 9.16663C16.667 10.8772 16.0944 12.4539 15.1303 13.7157L18.2074 16.7929C18.598 17.1834 18.598 17.8165 18.2074 18.2071C17.8169 18.5976 17.1837 18.5976 16.7932 18.2071L13.7161 15.13Z" fill="#505F79"/>
</svg>
