<svg width="24" height="24" viewBox="0 0 24 24" fill="none" xmlns="http://www.w3.org/2000/svg">
<path fill-rule="evenodd" clip-rule="evenodd" d="M8.36561 9.63424L11.4342 6.56561C11.6323 6.3676 11.7313 6.2686 11.8454 6.2315C11.9458 6.19887 12.054 6.19887 12.1544 6.2315C12.2686 6.2686 12.3676 6.3676 12.5656 6.56561L15.6342 9.63424L15.6342 9.63425C16.0626 10.0626 16.2768 10.2768 16.2913 10.4607C16.3038 10.6203 16.2393 10.7762 16.1175 10.8801C15.9773 10.9999 15.6744 10.9999 15.0686 10.9999H8.9313C8.32548 10.9999 8.02257 10.9999 7.88231 10.8801C7.76061 10.7762 7.69602 10.6203 7.70858 10.4607C7.72305 10.2768 7.93724 10.0626 8.36561 9.63424ZM8.36561 14.3656L11.4342 17.4342C11.6323 17.6322 11.7313 17.7313 11.8454 17.7683C11.9458 17.801 12.054 17.801 12.1544 17.7683C12.2686 17.7313 12.3676 17.6322 12.5656 17.4342L15.6342 14.3656C16.0626 13.9372 16.2768 13.723 16.2913 13.5392C16.3038 13.3796 16.2393 13.2237 16.1175 13.1197C15.9773 12.9999 15.6744 12.9999 15.0686 12.9999H8.9313C8.32548 12.9999 8.02257 12.9999 7.88231 13.1197C7.76061 13.2237 7.69602 13.3796 7.70858 13.5392C7.72305 13.723 7.93724 13.9372 8.36561 14.3656Z" fill="#505F79"/>
</svg>
