<svg width="20" height="20" viewBox="0 0 20 20" fill="none" xmlns="http://www.w3.org/2000/svg">
<path fill-rule="evenodd" clip-rule="evenodd" d="M17.5 5.00008H2.5V7.50008C3.42047 7.50008 4.16667 8.24627 4.16667 9.16675V12.5001C4.16667 14.8571 4.16667 16.0356 4.8989 16.7678C5.63113 17.5001 6.80964 17.5001 9.16667 17.5001H10.8333C13.1904 17.5001 14.3689 17.5001 15.1011 16.7678C15.8333 16.0356 15.8333 14.8571 15.8333 12.5001V9.16675C15.8333 8.24627 16.5795 7.50008 17.5 7.50008V5.00008ZM8.75 9.16675C8.75 8.70651 8.3769 8.33341 7.91667 8.33341C7.45643 8.33341 7.08333 8.70651 7.08333 9.16675V13.3334C7.08333 13.7937 7.45643 14.1667 7.91667 14.1667C8.3769 14.1667 8.75 13.7937 8.75 13.3334V9.16675ZM12.9167 9.16675C12.9167 8.70651 12.5436 8.33341 12.0833 8.33341C11.6231 8.33341 11.25 8.70651 11.25 9.16675V13.3334C11.25 13.7937 11.6231 14.1667 12.0833 14.1667C12.5436 14.1667 12.9167 13.7937 12.9167 13.3334V9.16675Z" fill="#566376"/>
<path fill-rule="evenodd" clip-rule="evenodd" d="M11.1715 1.76777C10.8182 1.7 10.4077 1.66675 9.99995 1.66675C9.59225 1.66675 9.18165 1.7 8.82835 1.76777C8.65173 1.80166 8.47881 1.84615 8.32215 1.90477C8.17985 1.95801 7.98578 2.0464 7.82158 2.1996C7.48507 2.51357 7.46679 3.04089 7.78076 3.3774C8.07704 3.69495 8.56329 3.72912 8.89992 3.46814C8.90184 3.4674 8.90393 3.4666 8.90619 3.46575C8.95066 3.44911 9.02789 3.42655 9.14234 3.40459C9.37119 3.3607 9.67387 3.33341 9.99995 3.33341C10.326 3.33341 10.6287 3.3607 10.8576 3.40459C10.972 3.42655 11.0492 3.44911 11.0937 3.46575C11.096 3.4666 11.0981 3.4674 11.1 3.46814C11.4366 3.72912 11.9229 3.69495 12.2191 3.3774C12.5331 3.04089 12.5148 2.51357 12.1783 2.1996C12.0141 2.0464 11.8201 1.95801 11.6778 1.90477C11.5211 1.84615 11.3482 1.80166 11.1715 1.76777Z" fill="#566376"/>
</svg>
